<svg xmlns="http://www.w3.org/2000/svg" xmlns:xlink="http://www.w3.org/1999/xlink" width="500" zoomAndPan="magnify" viewBox="0 0 375 374.999991" height="500" preserveAspectRatio="xMidYMid meet" version="1.0"><defs><clipPath id="id1"><path d="M 51.484375 29 L 334.234375 29 L 334.234375 353 L 51.484375 353 Z M 51.484375 29 " clip-rule="nonzero"/></clipPath></defs><path fill="#5271ff" d="M 162.566406 89.777344 C 157.042969 89.816406 152.507812 94.351562 152.507812 99.832031 L 152.507812 140.25 L 112.074219 140.25 C 106.511719 140.25 101.976562 144.78125 101.976562 150.34375 C 101.976562 150.34375 101.976562 150.382812 101.976562 150.382812 L 101.976562 210.867188 C 101.976562 210.867188 101.976562 210.90625 101.976562 210.90625 C 101.976562 216.464844 106.511719 221 112.074219 221 L 152.507812 221 L 152.507812 261.375 C 152.507812 266.898438 157.042969 271.429688 162.566406 271.472656 L 223.15625 271.472656 C 228.675781 271.429688 233.214844 266.898438 233.214844 261.375 L 233.214844 221 L 273.644531 221 C 273.644531 221 273.644531 221 273.683594 221 C 279.207031 221 283.785156 216.464844 283.785156 210.90625 C 283.785156 210.90625 283.785156 210.867188 283.785156 210.867188 L 283.785156 150.382812 C 283.785156 150.382812 283.785156 150.34375 283.785156 150.34375 C 283.785156 144.78125 279.207031 140.25 273.683594 140.25 C 273.644531 140.25 273.644531 140.25 273.644531 140.25 L 233.214844 140.25 L 233.214844 99.832031 C 233.214844 94.351562 228.675781 89.816406 223.15625 89.777344 Z M 172.625 110.007812 L 213.015625 110.007812 L 213.015625 150.382812 C 213.054688 155.902344 217.59375 160.4375 223.117188 160.4375 C 223.117188 160.4375 223.15625 160.4375 223.15625 160.4375 L 263.585938 160.4375 L 263.585938 200.8125 L 223.15625 200.8125 C 223.15625 200.8125 223.117188 200.8125 223.117188 200.8125 C 217.59375 200.8125 213.054688 205.347656 213.015625 210.867188 L 213.015625 251.242188 L 172.625 251.242188 L 172.625 210.867188 C 172.585938 205.386719 168.089844 200.851562 162.566406 200.8125 L 122.171875 200.8125 L 122.171875 160.4375 L 162.566406 160.4375 C 168.089844 160.398438 172.585938 155.863281 172.625 150.382812 L 172.625 110.007812 " fill-opacity="1" fill-rule="evenodd"/><g clip-path="url(#id1)"><path fill="#5271ff" d="M 61.542969 29.214844 C 56.023438 29.253906 51.484375 33.789062 51.484375 39.269531 L 51.484375 210.867188 C 51.484375 261.335938 78.425781 308.0625 122.171875 333.296875 C 165.878906 358.53125 219.839844 358.53125 263.585938 333.296875 C 307.292969 308.0625 334.234375 261.335938 334.234375 210.867188 L 334.234375 39.269531 C 334.195312 33.789062 329.660156 29.253906 324.175781 29.214844 Z M 71.679688 49.402344 L 314.039062 49.402344 L 314.039062 210.867188 C 314.039062 254.160156 290.921875 294.144531 253.410156 315.789062 C 215.9375 337.4375 169.824219 337.4375 132.308594 315.789062 C 94.796875 294.144531 71.679688 254.160156 71.679688 210.867188 L 71.679688 49.402344 " fill-opacity="1" fill-rule="evenodd"/></g></svg>